<?xml version="1.0"?>
<svg xmlns="http://www.w3.org/2000/svg" xmlns:xlink="http://www.w3.org/1999/xlink" version="1.1" id="Layer_1" x="0px" y="0px" viewBox="0 0 512 512" style="enable-background:new 0 0 512 512;" xml:space="preserve" width="512px" height="512px" class=""><g><path style="fill:#FFFEFE" d="M243.577,506.461c-7.065-7.868-173.004-194.146-173.004-321.035C70.574,83.182,153.756,0,256.001,0  s185.426,83.182,185.426,185.426c0,126.888-165.939,313.167-173.004,321.035C261.786,513.854,250.199,513.839,243.577,506.461z" data-original="#FF5752" class="" data-old_color="#FDFCFC"/><path style="fill:#E5E5E5" d="M441.426,185.426C441.426,83.182,358.244,0,256.001,0v512c4.552,0,9.106-1.843,12.423-5.539  C275.487,498.594,441.426,312.315,441.426,185.426z" data-original="#DB3A3C" class="" data-old_color="#E5E5E4"/><path style="fill:#F0F0F0" d="M256.001,278.719c-51.442,0-93.291-41.851-93.291-93.293s41.851-93.293,93.291-93.293  s93.291,41.851,93.291,93.293S307.441,278.719,256.001,278.719z" data-original="#EFEFEF" class="active-path" data-old_color="#EFEFEF"/><path style="fill:#DCDBDB" d="M256.001,92.134v186.585c51.442,0,93.291-41.851,93.291-93.293S307.441,92.134,256.001,92.134z" data-original="#C5D8DF" class="" data-old_color="#DCDADA"/></g> </svg>
