<?xml version="1.0"?>
<svg xmlns="http://www.w3.org/2000/svg" xmlns:xlink="http://www.w3.org/1999/xlink" version="1.1" id="Capa_1" x="0px" y="0px" viewBox="0 0 187.484 187.484" style="enable-background:new 0 0 187.484 187.484;" xml:space="preserve" width="512px" height="512px" class=""><g><g>
	<circle cx="93.742" cy="93.742" r="35.898" data-original="#000000" class="active-path" data-old_color="#5189F3" fill="#5289F2"/>
	<path d="M182.484,88.742h-5.61c-2.498-41.953-36.179-75.635-78.132-78.132V5c0-2.761-2.238-5-5-5s-5,2.239-5,5v5.61   C46.789,13.108,13.107,46.789,10.61,88.742H5c-2.762,0-5,2.239-5,5s2.238,5,5,5h5.61c2.498,41.953,36.179,75.635,78.132,78.132   v5.61c0,2.761,2.238,5,5,5s5-2.239,5-5v-5.61c41.953-2.498,75.635-36.179,78.132-78.132h5.61c2.762,0,5-2.239,5-5   S185.246,88.742,182.484,88.742z M98.742,161.835v-8.621c0-2.761-2.238-5-5-5s-5,2.239-5,5v8.621   C55.065,159.384,28.1,132.42,25.649,98.742h8.622c2.762,0,5-2.239,5-5s-2.238-5-5-5h-8.622C28.1,55.065,55.065,28.1,88.742,25.649   v8.621c0,2.761,2.238,5,5,5s5-2.239,5-5v-8.621c33.677,2.451,60.642,29.416,63.093,63.093h-8.622c-2.762,0-5,2.239-5,5s2.238,5,5,5   h8.622C159.384,132.42,132.419,159.384,98.742,161.835z" data-original="#000000" class="active-path" data-old_color="#5189F3" fill="#5289F2"/>
</g></g> </svg>
